<?xml version="1.0" encoding="UTF-8" standalone="no"?>
<svg width="342px" height="81px" viewBox="0 0 342 81" version="1.1" xmlns="http://www.w3.org/2000/svg" xmlns:xlink="http://www.w3.org/1999/xlink" xmlns:sketch="http://www.bohemiancoding.com/sketch/ns">
    <!-- Generator: Sketch 3.3.1 (12005) - http://www.bohemiancoding.com/sketch -->
    <title>meteor-logo-final</title>
    <desc>Created with Sketch.</desc>
    <defs></defs>
    <g id="01-Home" stroke="none" stroke-width="1" fill="none" fill-rule="evenodd" sketch:type="MSPage">
        <g sketch:type="MSArtboardGroup" transform="translate(-549.000000, -1585.000000)" id="Meteor">
            <g sketch:type="MSLayerGroup" transform="translate(0.000000, 1429.000000)">
                <g id="meteor-logo-final" transform="translate(549.000000, 156.000000)" sketch:type="MSShapeGroup">
                    <path d="M0,29.6233427 L11.96886,29.6233427 L25.23504,50.8311818 L38.50122,29.6233427 L50.47008,29.6233427 L50.47008,79.7782028 L39.51069,79.7782028 L39.51069,47.0338112 L25.30686,68.4568951 L25.01901,68.4568951 L10.95882,47.2490559 L10.95882,79.7782028 L0,79.7782028 L0,29.6233427 Z" id="Shape" fill-opacity="0.900000036" fill="#1D2937"></path>
                    <path d="M64.38549,29.6233427 L102.38226,29.6233427 L102.38226,39.4396364 L75.34431,39.4396364 L75.34431,49.6133497 L99.13782,49.6133497 L99.13782,59.4290769 L75.34431,59.4290769 L75.34431,69.9619091 L102.7425,69.9619091 L102.7425,79.7782028 L64.38549,79.7782028 L64.38549,29.6233427 Z" id="Shape" fill-opacity="0.900000036" fill="#1D2937"></path>
                    <path d="M131.65461,39.7976224 L116.29767,39.7976224 L116.29767,29.6239091 L158.11572,29.6239091 L158.11572,39.7976224 L142.75821,39.7976224 L142.75821,79.7776364 L131.65461,79.7776364 L131.65461,39.7976224 Z" id="Shape" fill-opacity="0.900000036" fill="#1D2937"></path>
                    <path d="M172.03113,29.6233427 L210.0279,29.6233427 L210.0279,39.4396364 L182.98995,39.4396364 L182.98995,49.6133497 L206.78289,49.6133497 L206.78289,59.4290769 L182.98995,59.4290769 L182.98995,69.9619091 L210.38814,69.9619091 L210.38814,79.7782028 L172.03113,79.7782028 L172.03113,29.6233427 Z" id="Shape" fill-opacity="0.900000036" fill="#1D2937"></path>
                    <path d="M298.38018,29.6233427 L321.45264,29.6233427 C327.84519,29.6233427 332.74776,31.3192448 336.16092,34.7099161 C339.04512,37.5760699 340.48665,41.3983636 340.48665,46.1745315 L340.48665,46.3172727 C340.48665,50.378035 339.48972,53.686007 337.49472,56.2406224 C335.49972,58.7969371 332.8914,60.6718322 329.67204,61.8653077 L342,79.7776364 L329.02167,79.7776364 L318.20706,63.7288741 L318.06342,63.7288741 L309.48264,63.7288741 L309.48264,79.7776364 L298.37961,79.7776364 L298.37961,29.6233427 L298.38018,29.6233427 Z M320.73159,53.9845175 C323.47215,53.9845175 325.57317,53.3393497 327.04035,52.0501469 C328.50582,50.7603776 329.23827,49.0406853 329.23827,46.8910699 L329.23827,46.7477622 C329.23827,44.3596783 328.46877,42.5686154 326.93091,41.3745734 C325.39248,40.1810979 323.25441,39.5829441 320.51442,39.5829441 L309.48264,39.5829441 L309.48264,53.9845175 L320.73159,53.9845175 L320.73159,53.9845175 Z" id="Shape" fill-opacity="0.900000036" fill="#1D2937"></path>
                    <g id="Mark" transform="translate(204.060000, 0.000000)" fill="#DF6823">
                        <path d="M70.66974,74.4027483 L0.21147,0 L75.08211,70.0174196 C76.33782,71.1910699 76.39824,73.1543287 75.21606,74.4021818 C74.03502,75.650035 72.0594,75.7100769 70.80369,74.5352937 C70.7598,74.4945105 70.71078,74.4457972 70.66974,74.4027483" id="Shape"></path>
                        <path d="M60.31398,79.6501888 L7.18656,22.4704196 L64.72635,75.2654266 C65.99346,76.4277483 66.07155,78.391007 64.90248,79.6501888 C63.73227,80.9093706 61.75722,80.986972 60.49011,79.8252168 C60.43083,79.7702727 60.3687,79.7085315 60.31398,79.6501888" id="Shape"></path>
                        <path d="M49.54839,79.8042587 L14.24202,41.7948671 L52.49073,76.8803287 C53.3349,77.6552098 53.38734,78.9642378 52.60815,79.8036923 C51.82839,80.6425804 50.51112,80.6958252 49.66638,79.9203776 C49.62534,79.8841259 49.5843,79.8427762 49.54839,79.8042587" id="Shape"></path>
                        <path d="M79.13025,53.4962517 L42.26949,13.9427622 L82.07202,50.5728881 C82.91562,51.3494685 82.96578,52.6579301 82.18488,53.4962517 C81.40341,54.334007 80.08671,54.3844196 79.24311,53.6084056 C79.20549,53.5732867 79.16559,53.5342028 79.13025,53.4962517" id="Shape"></path>
                        <path d="M75.95022,64.570028 L22.59195,7.16141958 L80.36316,60.1858322 C81.63027,61.3481538 81.70893,63.3114126 80.53872,64.570028 C79.36851,65.8297762 77.39289,65.9068112 76.12578,64.7444895 C76.06593,64.6901119 76.00437,64.6283706 75.95022,64.570028" id="Shape"></path>
                        <path d="M38.54169,76.6888741 L21.7455,58.5358112 L40.01229,75.228042 C40.4358,75.6143497 40.46316,76.2691469 40.07442,76.6888741 C39.68454,77.1091678 39.02619,77.1369231 38.60325,76.750049 C38.58216,76.7307902 38.56107,76.7092657 38.54169,76.6888741" id="Shape"></path>
                        <path d="M77.81355,40.354993 L61.01679,22.2019301 L79.28415,38.8935944 C79.70709,39.2799021 79.73502,39.9346993 79.34571,40.354993 C78.9564,40.7752867 78.29805,40.803042 77.87454,40.4161678 C77.85345,40.3969091 77.83236,40.3753846 77.81355,40.354993" id="Shape"></path>
                    </g>
                </g>
            </g>
        </g>
    </g>
</svg>